<svg width="159" height="12" viewBox="0 0 159 12" fill="none" xmlns="http://www.w3.org/2000/svg">
<path d="M3.42404 11.9727C2.87318 11.9727 2.36988 11.9026 1.9181 11.7662C1.46631 11.6298 1.0819 11.4505 0.756935 11.2361C0.431968 11.0218 0.182299 10.8035 0 10.5853L0.780713 9.58363C1.10172 9.89932 1.46631 10.1721 1.86658 10.3982C2.27081 10.6281 2.786 10.7411 3.40819 10.7411C3.91546 10.7411 4.36328 10.6242 4.75165 10.3904C5.14003 10.1565 5.44122 9.84086 5.66314 9.44333C5.88507 9.04579 5.99604 8.60539 5.99604 8.12212C5.99604 7.63884 5.90885 7.24131 5.7424 6.86327C5.57199 6.48522 5.32629 6.18512 5.00528 5.95908C4.68428 5.73693 4.29591 5.6239 3.84808 5.6239C3.321 5.6239 2.87715 5.73303 2.50859 5.95908C2.14003 6.18123 1.84676 6.41507 1.62483 6.6606L0.439894 6.24359L1.26024 0.358558H6.78468V1.59013H2.40555L1.85073 5.21078C2.1321 4.93797 2.46103 4.72751 2.83752 4.57941C3.214 4.43131 3.62219 4.35336 4.06209 4.35336C4.72391 4.35336 5.31044 4.51315 5.81374 4.83274C6.31704 5.14842 6.70938 5.58493 6.99075 6.14225C7.27213 6.69568 7.4148 7.33485 7.4148 8.05196C7.4148 8.55862 7.32365 9.04579 7.14135 9.51738C6.95905 9.98896 6.69353 10.4099 6.34875 10.7801C6.00396 11.1504 5.58388 11.4427 5.09247 11.657C4.60106 11.8714 4.04227 11.9805 3.42404 11.9805V11.9727Z" fill="#040000"/>
<path d="M14.3104 11.9727C13.7596 11.9727 13.2563 11.9026 12.8045 11.7662C12.3527 11.6298 11.9683 11.4505 11.6433 11.2361C11.3184 11.0218 11.0687 10.8035 10.8864 10.5853L11.6671 9.58363C11.9881 9.89932 12.3527 10.1721 12.753 10.3982C13.1572 10.6281 13.6724 10.7411 14.2946 10.7411C14.8019 10.7411 15.2497 10.6242 15.638 10.3904C16.0264 10.1565 16.3276 9.84086 16.5495 9.44333C16.7715 9.04579 16.8824 8.60539 16.8824 8.12212C16.8824 7.63884 16.7952 7.24131 16.6288 6.86327C16.4584 6.48522 16.2127 6.18512 15.8917 5.95908C15.5707 5.73693 15.1823 5.6239 14.7345 5.6239C14.2074 5.6239 13.7635 5.73303 13.395 5.95908C13.0264 6.18123 12.7332 6.41507 12.5112 6.6606L11.3263 6.24359L12.1427 0.358558H17.6671V1.59013H13.288L12.7332 5.21078C13.0145 4.93797 13.3435 4.72751 13.7199 4.57941C14.0964 4.43131 14.5046 4.35336 14.9445 4.35336C15.6063 4.35336 16.1929 4.51315 16.6962 4.83274C17.1995 5.14842 17.5918 5.58493 17.8732 6.14225C18.1546 6.69568 18.2972 7.33485 18.2972 8.05196C18.2972 8.55862 18.2061 9.04579 18.0238 9.51738C17.8415 9.98896 17.576 10.4099 17.2312 10.7801C16.8864 11.1504 16.4663 11.4427 15.9749 11.657C15.4835 11.8714 14.9247 11.9805 14.3065 11.9805L14.3104 11.9727Z" fill="#040000"/>
<path d="M22.0819 11.7778V0.619682L23.4333 0V4.33777C23.9524 3.60896 24.7252 3.24651 25.7477 3.24651C26.4214 3.24651 26.9921 3.37512 27.4597 3.62845C27.9273 3.88568 28.2801 4.291 28.5218 4.84833C28.7635 5.40565 28.8824 6.13446 28.8824 7.03865V11.7778H27.531V6.78532C27.531 5.9318 27.3408 5.3316 26.9564 4.98474C26.572 4.63397 26.1004 4.46249 25.5416 4.46249C25.1374 4.46249 24.7768 4.53264 24.4597 4.67684C24.1427 4.81715 23.893 5.05489 23.7107 5.38616C23.5284 5.71744 23.4373 6.17343 23.4373 6.75804V11.7817H22.0859L22.0819 11.7778Z" fill="#040000"/>
<path d="M33.5628 4.62618V3.44138H36.646V4.62618H33.5628ZM33.5628 11.7778V10.5969H39.5945V11.7778H33.5628ZM36.5628 1.86684C36.325 1.86684 36.1229 1.785 35.9604 1.6252C35.7979 1.46151 35.7147 1.26275 35.7147 1.02891C35.7147 0.795063 35.7979 0.576811 35.9604 0.409224C36.1229 0.241637 36.325 0.155895 36.5628 0.155895C36.8164 0.155895 37.0264 0.241637 37.1889 0.409224C37.3514 0.576811 37.4346 0.783371 37.4346 1.02891C37.4346 1.27444 37.3514 1.46151 37.1889 1.6252C37.0264 1.78889 36.8164 1.86684 36.5628 1.86684ZM35.9009 11.5323V3.44138H37.2523V11.5323H35.9009Z" fill="#040000"/>
<path d="M47.2391 11.9727C46.4425 11.9727 45.749 11.8012 45.1585 11.4583C44.568 11.1153 44.1044 10.6164 43.7794 9.96947C43.4505 9.31861 43.284 8.53524 43.284 7.61546C43.284 6.69568 43.4505 5.9279 43.7794 5.27314C44.1083 4.62228 44.568 4.11952 45.1585 3.76876C45.749 3.41799 46.4425 3.24261 47.2391 3.24261C48.0357 3.24261 48.7332 3.4141 49.3276 3.76096C49.9221 4.10783 50.3818 4.60279 50.7067 5.25365C51.0357 5.90451 51.1942 6.68789 51.1942 7.60767C51.1942 8.52744 51.0317 9.28743 50.7067 9.94219C50.3818 10.5931 49.9221 11.0958 49.3276 11.4466C48.7332 11.7973 48.0357 11.9727 47.2391 11.9727ZM47.2391 10.7489C48.0594 10.7489 48.6896 10.4683 49.1374 9.90711C49.5852 9.34589 49.8032 8.58201 49.8032 7.60767C49.8032 6.63332 49.5892 5.86554 49.1572 5.30432C48.7252 4.7392 48.0872 4.45859 47.2391 4.45859C46.391 4.45859 45.7688 4.73141 45.3329 5.27704C44.893 5.82267 44.675 6.60214 44.675 7.61546C44.675 8.62878 44.893 9.34589 45.3329 9.90711C45.7688 10.4683 46.4069 10.7489 47.2391 10.7489Z" fill="#040000"/>
<path d="M59.4571 11.9727C58.6011 11.9727 57.8243 11.7506 57.1347 11.3102C56.4452 10.8659 55.8943 10.2228 55.4901 9.37707C55.0819 8.53134 54.8798 7.50633 54.8798 6.30594C54.8798 5.39786 55.0066 4.56772 55.2602 3.81942C55.5139 3.07502 55.8626 2.42416 56.3104 1.87853C56.7583 1.3329 57.2655 0.908087 57.8441 0.60799C58.4227 0.307892 59.0291 0.159792 59.675 0.159792C60.535 0.159792 61.2919 0.366353 61.9419 0.779474C62.5918 1.1926 63.0991 1.76551 63.4597 2.49821C63.8204 3.23092 64.0026 4.08055 64.0026 5.0432C64.0026 5.84216 63.8996 6.55148 63.6975 7.17116C63.4954 7.79084 63.2259 8.27801 62.889 8.63657C62.5522 8.99513 62.1717 9.17051 61.7517 9.17051C61.4307 9.17051 61.1651 9.06528 60.9551 8.85482C60.745 8.64826 60.6063 8.35986 60.539 8.0013C60.3686 8.40273 60.1466 8.71842 59.8811 8.94446C59.6116 9.17051 59.3065 9.28353 58.9538 9.28353C58.6011 9.28353 58.2721 9.16271 57.9868 8.92887C57.7015 8.69503 57.4756 8.36375 57.3131 7.94284C57.1506 7.52192 57.0674 7.03865 57.0674 6.49302C57.0674 5.94739 57.1665 5.44462 57.3606 4.92238C57.5548 4.40013 57.8362 3.97142 58.1968 3.62845C58.5575 3.28548 58.9855 3.114 59.4808 3.114C59.8375 3.114 60.1427 3.23482 60.3844 3.48035C60.6262 3.72589 60.7847 4.06885 60.856 4.50926L61.0145 3.32835H61.934L61.4188 6.94901C61.4029 7.04644 61.391 7.13998 61.3831 7.22572C61.3752 7.31146 61.3712 7.38162 61.3712 7.43618C61.3712 7.65833 61.4188 7.83371 61.5099 7.96233C61.6011 8.09094 61.7318 8.1533 61.8904 8.1533C62.1281 8.1533 62.3382 8.02079 62.5205 7.75187C62.7028 7.48295 62.8494 7.1088 62.9564 6.62943C63.0634 6.15005 63.1189 5.60442 63.1189 4.98863C63.1189 4.13901 62.9604 3.42189 62.6473 2.83339C62.3303 2.24488 61.9141 1.80058 61.395 1.49659C60.8758 1.1926 60.3131 1.0406 59.7028 1.0406C58.9458 1.0406 58.2721 1.27054 57.6856 1.72653C57.0991 2.18253 56.6394 2.81 56.3065 3.60507C55.9775 4.40013 55.8111 5.30042 55.8111 6.30984C55.8111 7.21403 55.9577 8.02079 56.251 8.7379C56.5443 9.45502 56.9683 10.0201 57.5152 10.4333C58.0661 10.8503 58.7279 11.0568 59.4927 11.0568C59.8018 11.0568 60.1268 11.0296 60.4597 10.975C60.7926 10.9204 61.0859 10.8464 61.3355 10.745L61.1136 11.7428C60.8758 11.8129 60.6103 11.8675 60.325 11.9065C60.0357 11.9454 59.7424 11.9649 59.4452 11.9649L59.4571 11.9727ZM59.1915 8.27801C59.4809 8.27801 59.7305 8.16889 59.9485 7.94674C60.1704 7.72459 60.3369 7.43618 60.4557 7.07372C60.5746 6.71127 60.6341 6.31764 60.6341 5.88503C60.6341 5.35499 60.5271 4.93017 60.317 4.61449C60.103 4.2988 59.8494 4.1429 59.5561 4.1429C59.247 4.1429 58.9815 4.25203 58.7596 4.46638C58.5377 4.68464 58.3672 4.97304 58.2523 5.3355C58.1374 5.69795 58.0779 6.09159 58.0779 6.5164C58.0779 7.05814 58.177 7.49074 58.3752 7.80253C58.5733 8.11822 58.8428 8.27801 59.1876 8.27801H59.1915Z" fill="#040000"/>
<path d="M68.2668 11.7778V3.44138H69.6182V5.00032L69.4003 4.71582C69.535 4.41572 69.7173 4.15849 69.963 3.93634C70.2048 3.71419 70.4901 3.54661 70.823 3.42579C71.1599 3.30497 71.5284 3.24651 71.9326 3.24651C72.6063 3.24651 73.177 3.37512 73.6447 3.62845C74.1123 3.88568 74.465 4.291 74.7067 4.84833C74.9485 5.40565 75.0674 6.13446 75.0674 7.03865V11.7778H73.716V6.78532C73.716 5.9318 73.5258 5.3316 73.1453 4.98474C72.7649 4.63397 72.2893 4.46249 71.7266 4.46249C71.3184 4.46249 70.9538 4.53264 70.6367 4.67684C70.3197 4.81715 70.07 5.05489 69.8917 5.38616C69.7094 5.71744 69.6222 6.17343 69.6222 6.75804V11.7817H68.2708L68.2668 11.7778Z" fill="#040000"/>
<path d="M81.9749 11.9727C81.3844 11.9727 80.8613 11.8675 80.4095 11.6609C79.9577 11.4544 79.6011 11.1387 79.3435 10.7217C79.0859 10.3046 78.9591 9.78629 78.9591 9.17051C78.9591 8.55473 79.1136 8.0052 79.4227 7.59987C79.7318 7.19454 80.1321 6.89834 80.6275 6.70348C81.1189 6.5125 81.642 6.41507 82.1929 6.41507C82.609 6.41507 83.0013 6.45404 83.3738 6.53589C83.7464 6.61773 84.1229 6.75804 84.5073 6.9607V6.31374C84.5073 5.79539 84.424 5.40175 84.2576 5.12894C84.0912 4.85222 83.8692 4.66515 83.5958 4.56382C83.3184 4.45859 83.0211 4.40792 82.7001 4.40792C82.2484 4.40792 81.7728 4.50146 81.2814 4.68074C80.79 4.86392 80.3659 5.06658 80.0132 5.29653L79.613 4.17798C79.9894 3.94804 80.461 3.73758 81.0277 3.54271C81.5945 3.34784 82.1929 3.25041 82.823 3.25041C83.148 3.25041 83.4848 3.28938 83.8256 3.36733C84.1665 3.44527 84.4875 3.59337 84.7886 3.80383C85.0859 4.01819 85.3276 4.31439 85.5099 4.70023C85.6922 5.08607 85.7834 5.58883 85.7834 6.20071V11.7817H84.5073V11.0062C84.1982 11.2829 83.8336 11.5128 83.4095 11.6999C82.9855 11.8831 82.5099 11.9766 81.9789 11.9766L81.9749 11.9727ZM82.1572 10.8152C82.6962 10.8152 83.1598 10.6944 83.5522 10.4449C83.9445 10.1955 84.2616 9.9305 84.5073 9.64209V8.16499C84.2497 8.0013 83.9247 7.86099 83.5363 7.73628C83.148 7.61156 82.7556 7.5531 82.3593 7.5531C81.7886 7.5531 81.2933 7.68561 80.8653 7.94284C80.4373 8.20396 80.2272 8.61319 80.2272 9.16661C80.2272 9.65768 80.3937 10.0513 80.7305 10.3592C81.0674 10.6632 81.5429 10.8152 82.1612 10.8152H82.1572Z" fill="#040000"/>
<path d="M92.893 11.7778L89.6513 3.44138H91.0621L93.1863 9.06138C93.2299 9.1861 93.2774 9.31471 93.321 9.45112C93.3686 9.58753 93.4161 9.73563 93.4676 9.89932C93.5112 9.73563 93.5588 9.58753 93.6063 9.45112C93.6539 9.31471 93.7054 9.1861 93.749 9.06138L95.8296 3.44138H97.2048L93.9709 11.7778H92.893Z" fill="#040000"/>
<path d="M104.477 11.9727C103.664 11.9727 102.971 11.7778 102.392 11.3842C101.814 10.9906 101.374 10.4683 101.069 9.80578C100.764 9.14323 100.613 8.41052 100.613 7.59987C100.613 6.68009 100.771 5.89672 101.089 5.24586C101.406 4.595 101.857 4.10003 102.436 3.75706C103.015 3.4141 103.696 3.24261 104.477 3.24261C105.115 3.24261 105.697 3.38292 106.232 3.66353C106.768 3.94803 107.192 4.38454 107.517 4.97304C107.838 5.56155 107.996 6.32153 107.996 7.24521C107.996 7.34654 107.996 7.47515 107.992 7.62715C107.992 7.77915 107.976 7.95063 107.956 8.13381H101.679V6.9568H106.649C106.637 6.29425 106.518 5.7798 106.288 5.41345C106.058 5.04709 105.777 4.78987 105.444 4.64177C105.111 4.49756 104.79 4.42351 104.485 4.42351C103.625 4.42351 102.991 4.69243 102.587 5.22637C102.182 5.76031 101.98 6.48133 101.98 7.38162C101.98 8.42222 102.206 9.24066 102.654 9.84476C103.102 10.4488 103.724 10.7489 104.52 10.7489C104.861 10.7489 105.202 10.6983 105.531 10.5892C105.864 10.4839 106.189 10.3046 106.51 10.0552L107.275 10.9282C106.918 11.2283 106.502 11.4739 106.026 11.6726C105.547 11.8675 105.036 11.9649 104.485 11.9649L104.477 11.9727Z" fill="#040000"/>
<path d="M110.925 11.7778V10.5969H112.692V4.62618H110.925V3.44138H113.996V5.30822L113.897 5.07048C114.075 4.70023 114.345 4.37675 114.705 4.10393C115.066 3.82722 115.474 3.61676 115.926 3.46476C116.378 3.31666 116.826 3.24261 117.273 3.24261C117.721 3.24261 118.074 3.27769 118.375 3.35563C118.68 3.42968 118.922 3.52322 119.104 3.63235V6.49691H117.753V4.03378L118.169 4.66125C118.03 4.62228 117.884 4.595 117.725 4.57941C117.567 4.56382 117.404 4.55602 117.234 4.55602C116.675 4.55602 116.156 4.64566 115.672 4.82884C115.193 5.00812 114.804 5.27704 114.515 5.6317C114.226 5.98246 114.079 6.41897 114.079 6.93732V10.5931H116.576V11.774H110.925V11.7778Z" fill="#040000"/>
<path d="M124.078 12C123.757 12 123.491 11.8909 123.281 11.6687C123.071 11.4466 122.964 11.1971 122.964 10.9126C122.964 10.6281 123.071 10.3748 123.281 10.1526C123.491 9.9305 123.757 9.81747 124.07 9.81747C124.383 9.81747 124.657 9.9266 124.871 10.1526C125.085 10.3787 125.188 10.6281 125.188 10.9126C125.188 11.1971 125.081 11.4466 124.871 11.6687C124.657 11.887 124.395 12 124.078 12Z" fill="#040000"/>
<path d="M133.161 11.9727C132.067 11.9727 131.199 11.5908 130.561 10.8308C129.923 10.0708 129.602 8.99903 129.602 7.61936C129.602 6.70347 129.749 5.924 130.042 5.26924C130.336 4.61449 130.756 4.11562 131.303 3.76876C131.849 3.41799 132.503 3.24651 133.268 3.24651C133.982 3.24651 134.596 3.4024 135.115 3.71809C135.63 4.03378 136.011 4.50146 136.252 5.12114L135 5.57714C134.865 5.25365 134.659 4.98863 134.378 4.77817C134.096 4.56382 133.716 4.45859 133.232 4.45859C132.448 4.45859 131.877 4.7431 131.524 5.31211C131.168 5.87723 130.993 6.64891 130.993 7.61546C130.993 8.58201 131.172 9.36928 131.532 9.91881C131.893 10.4683 132.448 10.745 133.197 10.745C133.672 10.745 134.077 10.6359 134.406 10.4099C134.734 10.1838 134.972 9.87983 135.115 9.4862L136.351 9.91881C136.133 10.5619 135.749 11.0607 135.19 11.4232C134.631 11.7856 133.954 11.9649 133.157 11.9649L133.161 11.9727Z" fill="#040000"/>
<path d="M143.853 11.9727C143.057 11.9727 142.363 11.8012 141.773 11.4583C141.182 11.1153 140.719 10.6164 140.394 9.96947C140.065 9.31861 139.898 8.53524 139.898 7.61546C139.898 6.69568 140.065 5.9279 140.394 5.27314C140.723 4.62228 141.182 4.11952 141.773 3.76876C142.363 3.41799 143.057 3.24261 143.853 3.24261C144.65 3.24261 145.347 3.4141 145.942 3.76096C146.536 4.10783 146.996 4.60279 147.321 5.25365C147.65 5.90451 147.808 6.68789 147.808 7.60767C147.808 8.52744 147.646 9.28743 147.321 9.94219C146.996 10.5931 146.536 11.0958 145.942 11.4466C145.347 11.7973 144.65 11.9727 143.853 11.9727ZM143.853 10.7489C144.674 10.7489 145.304 10.4683 145.752 9.90711C146.199 9.34589 146.417 8.58201 146.417 7.60767C146.417 6.63332 146.203 5.86554 145.771 5.30432C145.339 4.7392 144.701 4.45859 143.853 4.45859C143.005 4.45859 142.383 4.73141 141.947 5.27704C141.507 5.82267 141.289 6.60214 141.289 7.61546C141.289 8.62878 141.507 9.34589 141.947 9.90711C142.383 10.4683 143.021 10.7489 143.853 10.7489Z" fill="#040000"/>
<path d="M150.464 11.7778V3.44138H151.799V4.98474L151.601 4.86392C151.756 4.34557 151.974 3.94804 152.255 3.66742C152.536 3.38681 152.901 3.24651 153.349 3.24651C153.828 3.24651 154.205 3.37902 154.474 3.64794C154.744 3.91686 154.93 4.20916 155.029 4.52485C155.223 4.17798 155.477 3.87399 155.786 3.62455C156.099 3.37122 156.483 3.24651 156.935 3.24651C157.637 3.24651 158.16 3.47256 158.493 3.92075C158.83 4.37285 159 5.10166 159 6.10718V11.774H157.664V6.67619C157.664 5.93569 157.601 5.39006 157.474 5.02761C157.347 4.66905 157.07 4.48977 156.646 4.48977C156.353 4.48977 156.115 4.5911 155.933 4.79376C155.75 4.99643 155.616 5.27314 155.532 5.61221C155.449 5.95128 155.41 6.33322 155.41 6.75414V11.7701H154.074V6.50081C154.074 6.14225 154.05 5.81098 154.007 5.50309C153.963 5.19519 153.872 4.94966 153.729 4.76648C153.587 4.58331 153.38 4.48977 153.103 4.48977C152.81 4.48977 152.564 4.5911 152.374 4.79376C152.18 4.99643 152.033 5.27314 151.938 5.61221C151.843 5.95518 151.791 6.33322 151.791 6.75414V11.7701H150.456L150.464 11.7778Z" fill="#040000"/>
</svg>
