<svg width="61" height="10" viewBox="0 0 61 10" fill="none" xmlns="http://www.w3.org/2000/svg">
<path d="M3.92365 9.98473C3.18996 9.98473 2.52804 9.80145 1.93391 9.43108C1.33978 9.06071 0.873251 8.52234 0.522356 7.81978C0.17146 7.11722 0 6.26193 0 5.25773C0 4.50172 0.111649 3.81061 0.326971 3.18824C0.546281 2.56587 0.845339 2.02367 1.22415 1.5693C1.60694 1.11111 2.04556 0.759832 2.54001 0.511646C3.03445 0.263459 3.5568 0.137457 4.10707 0.137457C4.84475 0.137457 5.49471 0.309278 6.04896 0.656739C6.60322 1.0042 7.03785 1.48148 7.34887 2.0924C7.65989 2.70714 7.8154 3.41352 7.8154 4.21535C7.8154 4.88354 7.72768 5.47537 7.55622 5.99084C7.38476 6.51012 7.15348 6.91485 6.86639 7.21268C6.5753 7.5105 6.25232 7.65941 5.89345 7.65941C5.61832 7.65941 5.39103 7.57159 5.2116 7.39595C5.03216 7.22031 4.91254 6.98358 4.85671 6.68576C4.70918 7.02176 4.52177 7.2814 4.2905 7.47232C4.05922 7.65941 3.80004 7.75487 3.50098 7.75487C3.20192 7.75487 2.91881 7.65559 2.67159 7.46086C2.42836 7.26231 2.23696 6.99122 2.0974 6.63994C1.95784 6.28866 1.89005 5.88392 1.89005 5.43337C1.89005 4.98282 1.97379 4.55517 2.14126 4.12371C2.30873 3.68843 2.54798 3.33333 2.859 3.04696C3.17002 2.7606 3.53687 2.61932 3.95555 2.61932C4.26258 2.61932 4.52177 2.72241 4.72912 2.92478C4.93646 3.12715 5.07204 3.41352 5.13583 3.78389L5.27141 2.79878H6.06092L5.61832 5.81901C5.60635 5.8992 5.59439 5.97556 5.58642 6.04811C5.57844 6.12066 5.57445 6.17793 5.57445 6.22375C5.57445 6.41084 5.61433 6.55594 5.69807 6.66285C5.7818 6.76976 5.88548 6.82322 6.02504 6.82322C6.2284 6.82322 6.40783 6.71249 6.56733 6.48721C6.72284 6.26193 6.84645 5.95265 6.93816 5.55174C7.02987 5.15082 7.07772 4.69645 7.07772 4.1848C7.07772 3.47843 6.94215 2.87896 6.671 2.39023C6.39986 1.90149 6.04497 1.53112 5.59838 1.2753C5.15178 1.02329 4.6693 0.897289 4.14695 0.897289C3.49699 0.897289 2.9228 1.08438 2.42038 1.46621C1.91796 1.84803 1.52719 2.37113 1.2401 3.03551C0.956988 3.69989 0.81344 4.45208 0.81344 5.2921C0.81344 6.04429 0.937051 6.72012 1.18826 7.31577C1.43947 7.91142 1.80233 8.38488 2.27285 8.72852C2.74337 9.07598 3.3056 9.2478 3.96751 9.2478C4.23068 9.2478 4.50981 9.2249 4.79291 9.17908C5.08001 9.13326 5.33122 9.07216 5.54255 8.99198L5.35116 9.82054C5.1478 9.87782 4.92051 9.92363 4.67728 9.95418C4.43006 9.98855 4.17885 10 3.92365 10V9.98473ZM3.69637 6.9034C3.94359 6.9034 4.15891 6.81176 4.34632 6.62848C4.53373 6.44521 4.67728 6.20084 4.78095 5.8992C4.88064 5.59756 4.93248 5.26537 4.93248 4.91027C4.93248 4.46735 4.84076 4.11226 4.65734 3.8488C4.47392 3.58534 4.2586 3.4517 4.00739 3.4517C3.74023 3.4517 3.51693 3.54334 3.32553 3.7228C3.13812 3.90225 2.99457 4.14662 2.89489 4.44826C2.7952 4.7499 2.74735 5.07827 2.74735 5.42955C2.74735 5.88393 2.83508 6.24284 3.00255 6.50248C3.17002 6.76212 3.40528 6.89576 3.70035 6.89576L3.69637 6.9034Z" fill="#040000"/>
<path d="M15.2679 9.98473C14.7934 9.98473 14.3668 9.92745 13.98 9.81291C13.5932 9.69454 13.2623 9.54945 12.9831 9.36999C12.708 9.19053 12.4927 9.01107 12.3332 8.8278L12.9991 7.9916C13.2742 8.25506 13.5813 8.48415 13.9282 8.67125C14.2711 8.86216 14.7137 8.95762 15.248 8.95762C15.6826 8.95762 16.0654 8.86216 16.3964 8.66361C16.7274 8.46888 16.9865 8.20542 17.1779 7.87323C17.3653 7.54486 17.461 7.17449 17.461 6.77358C17.461 6.37266 17.3893 6.03665 17.2457 5.72356C17.1022 5.41046 16.8908 5.15846 16.6157 4.97136C16.3366 4.78427 16.0096 4.69263 15.6228 4.69263C15.1722 4.69263 14.7894 4.78427 14.4784 4.97136C14.1634 5.15846 13.9122 5.34937 13.7208 5.55556L12.704 5.20809L13.4058 0.297824H18.1349V1.32493H14.3827L13.9082 4.34517C14.1475 4.11989 14.4306 3.94425 14.7536 3.81825C15.0765 3.69225 15.4274 3.63116 15.8062 3.63116C16.3725 3.63116 16.8749 3.7648 17.3055 4.02825C17.7362 4.29553 18.0711 4.65827 18.3144 5.12028C18.5576 5.58228 18.6772 6.11302 18.6772 6.71249C18.6772 7.13631 18.6015 7.54105 18.442 7.93433C18.2864 8.32761 18.0592 8.67889 17.7641 8.98435C17.469 9.29362 17.1101 9.53799 16.6875 9.71363C16.2688 9.89309 15.7903 9.98091 15.26 9.98091L15.2679 9.98473Z" fill="#040000"/>
<path d="M26.0061 9.98473C25.5316 9.98473 25.105 9.92745 24.7182 9.81291C24.3314 9.69454 24.0005 9.54945 23.7213 9.36999C23.4462 9.19053 23.2309 9.01107 23.0714 8.8278L23.7373 7.9916C24.0124 8.25506 24.3195 8.48415 24.6664 8.67125C25.0093 8.86216 25.4519 8.95762 25.9862 8.95762C26.4208 8.95762 26.8036 8.86216 27.1346 8.66361C27.4656 8.46888 27.7247 8.20542 27.9161 7.87323C28.1035 7.54486 28.1992 7.17449 28.1992 6.77358C28.1992 6.37266 28.1275 6.03665 27.9839 5.72356C27.8404 5.41046 27.629 5.15846 27.3539 4.97136C27.0748 4.78427 26.7478 4.69263 26.361 4.69263C25.9104 4.69263 25.5277 4.78427 25.2166 4.97136C24.9016 5.15846 24.6504 5.34937 24.459 5.55556L23.4422 5.20809L24.144 0.297824H28.8731V1.32493H25.1209L24.6464 4.34517C24.8857 4.11989 25.1688 3.94425 25.4918 3.81825C25.8147 3.69225 26.1656 3.63116 26.5445 3.63116C27.1107 3.63116 27.6131 3.7648 28.0437 4.02825C28.4744 4.29553 28.8093 4.65827 29.0526 5.12028C29.2958 5.58228 29.4154 6.11302 29.4154 6.71249C29.4154 7.13631 29.3397 7.54105 29.1802 7.93433C29.0246 8.32761 28.7974 8.67889 28.5023 8.98435C28.2072 9.29362 27.8483 9.53799 27.4257 9.71363C27.007 9.89309 26.5285 9.98091 25.9982 9.98091L26.0061 9.98473Z" fill="#040000"/>
<path d="M34.0807 9.82054V0.515464L35.2371 0V3.6197C35.6797 3.0126 36.3416 2.70714 37.2189 2.70714C37.797 2.70714 38.2835 2.81405 38.6822 3.02787C39.081 3.2417 39.384 3.58152 39.5914 4.04353C39.7987 4.50554 39.8984 5.11646 39.8984 5.86865V9.82054H38.7421V5.65865C38.7421 4.94464 38.5786 4.44444 38.2476 4.15426C37.9167 3.86407 37.5139 3.71898 37.0354 3.71898C36.6925 3.71898 36.3815 3.77625 36.1103 3.89462C35.8392 4.01298 35.6239 4.20771 35.4684 4.48644C35.3129 4.76136 35.2331 5.14318 35.2331 5.6281V9.81672H34.0767L34.0807 9.82054Z" fill="#040000"/>
<path d="M45.0502 3.85643V2.86751H47.6939V3.85643H45.0502ZM45.0502 9.82054V8.83543H50.214V9.82054H45.0502ZM47.6221 1.55785C47.4187 1.55785 47.2473 1.48912 47.1077 1.35166C46.9682 1.21802 46.9004 1.05002 46.9004 0.855288C46.9004 0.660557 46.9722 0.477281 47.1077 0.339824C47.2473 0.198549 47.4187 0.126002 47.6221 0.126002C47.8414 0.126002 48.0209 0.198549 48.1604 0.339824C48.3 0.4811 48.3678 0.652921 48.3678 0.855288C48.3678 1.05766 48.296 1.21802 48.1604 1.35166C48.0209 1.48912 47.8414 1.55785 47.6221 1.55785ZM47.0519 9.61817V2.86751H48.2083V9.61436H47.0519V9.61817Z" fill="#040000"/>
<path d="M57.6147 9.98473C56.9328 9.98473 56.3387 9.84345 55.8323 9.55708C55.3259 9.27071 54.9311 8.85834 54.652 8.31615C54.3689 7.77396 54.2293 7.12104 54.2293 6.35357C54.2293 5.5861 54.3689 4.94464 54.652 4.40244C54.9351 3.86025 55.3298 3.44024 55.8323 3.14624C56.3347 2.85223 56.9328 2.70714 57.6147 2.70714C58.2965 2.70714 58.8906 2.85223 59.401 3.1386C59.9114 3.42497 60.3022 3.84116 60.5813 4.38335C60.8604 4.92554 61 5.57847 61 6.34593C61 7.1134 60.8604 7.74723 60.5813 8.28942C60.3022 8.83161 59.9074 9.25162 59.401 9.54181C58.8946 9.832 58.2965 9.98091 57.6147 9.98091V9.98473ZM57.6147 8.96144C58.3164 8.96144 58.8587 8.72852 59.2375 8.2627C59.6164 7.79687 59.8078 7.1554 59.8078 6.34593C59.8078 5.53646 59.6243 4.895 59.2535 4.42535C58.8827 3.95571 58.3364 3.7228 57.6147 3.7228C56.8929 3.7228 56.3546 3.95189 55.9798 4.40626C55.605 4.86063 55.4176 5.51355 55.4176 6.35357C55.4176 7.19358 55.605 7.79687 55.9798 8.2627C56.3546 8.72852 56.8969 8.96144 57.6147 8.96144Z" fill="#040000"/>
</svg>
