<svg width="95" height="30" viewBox="0 0 95 30" fill="none" xmlns="http://www.w3.org/2000/svg">
<path d="M0.47238 11.0078V0.335114H1.74928V4.87737H5.67225V0.335114H6.94546V11.0078H5.67225V6.06119H1.74559V11.0078H0.47238Z" fill="#040000"/>
<path d="M13.3189 11.1899C12.769 11.1899 12.2819 11.0915 11.8612 10.8985C11.4404 10.7054 11.1083 10.4104 10.8684 10.0206C10.6285 9.63089 10.5104 9.14643 10.5104 8.56727C10.5104 7.9881 10.6544 7.47814 10.9422 7.09932C11.2301 6.72049 11.6028 6.44366 12.0641 6.26153C12.5218 6.07941 13.0089 5.99199 13.5219 5.99199C13.9094 5.99199 14.2747 6.03205 14.6216 6.10491C14.9685 6.17776 15.3191 6.31253 15.6771 6.50194V5.89728C15.6771 5.41282 15.5996 5.04492 15.4446 4.78995C15.2896 4.53133 15.0829 4.35648 14.8283 4.26178C14.5737 4.16707 14.2932 4.11608 13.9942 4.11608C13.5735 4.11608 13.1307 4.2035 12.6731 4.3747C12.2154 4.54225 11.8206 4.73531 11.4921 4.94658L11.1194 3.90117C11.47 3.68626 11.9091 3.48956 12.4369 3.30743C12.9646 3.1253 13.5219 3.03424 14.1087 3.03424C14.4113 3.03424 14.725 3.07067 15.0423 3.14352C15.3597 3.22001 15.6587 3.35478 15.9391 3.55148C16.2159 3.75182 16.441 4.0323 16.6108 4.39291C16.7806 4.75352 16.8654 5.21977 16.8654 5.79529V11.0114H15.6771V10.2865C15.3892 10.5452 15.0497 10.7601 14.6548 10.9349C14.26 11.1061 13.8171 11.1935 13.3226 11.1935L13.3189 11.1899ZM13.4887 10.1081C13.9906 10.1081 14.4223 9.9915 14.7877 9.75838C15.1531 9.52525 15.4483 9.27756 15.6771 9.00801V7.62749C15.4372 7.47814 15.1346 7.34337 14.7729 7.23045C14.4113 7.11389 14.0459 7.05925 13.6769 7.05925C13.1454 7.05925 12.6841 7.1831 12.2856 7.42715C11.887 7.6712 11.6914 8.05002 11.6914 8.57091C11.6914 9.02987 11.8464 9.40141 12.1601 9.68553C12.4738 9.96964 12.9166 10.1117 13.4923 10.1117L13.4887 10.1081Z" fill="#040000"/>
<path d="M20.006 11.0078V9.90044H21.652V4.32006H20.006V3.21272H22.8661V4.9575L22.7739 4.73895C22.9399 4.39291 23.1909 4.09058 23.5267 3.8356C23.8626 3.57698 24.2427 3.38028 24.6634 3.24186C25.0841 3.09981 25.5011 3.0306 25.9181 3.0306C26.3352 3.0306 26.6636 3.06338 26.9441 3.13623C27.2246 3.20908 27.4534 3.29286 27.6231 3.39485V6.07212H26.3647V3.77003L26.7522 4.35648C26.623 4.3237 26.4865 4.29456 26.3389 4.27999C26.1912 4.26542 26.0399 4.25813 25.8812 4.25813C25.3609 4.25813 24.8774 4.34191 24.4272 4.51311C23.9807 4.68067 23.619 4.93201 23.3496 5.26348C23.0802 5.59495 22.9436 5.99927 22.9436 6.48373V9.90044H25.2686V11.0078H20.006Z" fill="#040000"/>
<path d="M31.5092 4.3237V3.21637H34.3804V4.3237H31.5092ZM31.5092 11.0078V9.90044H37.1261V11.0078H31.5092ZM34.3066 1.74478C34.0852 1.74478 33.8969 1.66829 33.7456 1.5153C33.5943 1.36231 33.5168 1.17654 33.5168 0.957989C33.5168 0.739437 33.5943 0.539097 33.7456 0.378825C33.8969 0.222195 34.0852 0.142059 34.3066 0.142059C34.5428 0.142059 34.7384 0.222195 34.8897 0.378825C35.041 0.535454 35.1185 0.728509 35.1185 0.957989C35.1185 1.18747 35.041 1.36231 34.8897 1.5153C34.7384 1.66829 34.5428 1.74478 34.3066 1.74478ZM33.6866 10.7819V3.21637H34.945V10.7819H33.6866Z" fill="#040000"/>
<path d="M40.2667 11.0078V3.21637H41.5104V4.65881L41.3259 4.5459C41.4698 4.06144 41.6728 3.6899 41.9348 3.42763C42.1968 3.16901 42.5363 3.03424 42.9533 3.03424C43.3999 3.03424 43.7505 3.15809 44.0014 3.40942C44.2524 3.66076 44.4258 3.93759 44.5181 4.22899C44.6989 3.90117 44.9351 3.62069 45.223 3.38392C45.5145 3.14716 45.8725 3.0306 46.2932 3.0306C46.9464 3.0306 47.4336 3.24187 47.7436 3.6644C48.0573 4.08329 48.2159 4.76809 48.2159 5.70787V11.0078H46.9723V6.24332C46.9723 5.55124 46.9132 5.03764 46.7951 4.70253C46.677 4.36741 46.4187 4.19985 46.0238 4.19985C45.7507 4.19985 45.5293 4.29456 45.3595 4.48397C45.1898 4.67339 45.0643 4.93201 44.9868 5.24891C44.9093 5.56945 44.8724 5.92278 44.8724 6.31617V11.0041H43.6287V6.07941C43.6287 5.74429 43.6066 5.43103 43.566 5.14692C43.5254 4.85916 43.4405 4.62967 43.3076 4.45848C43.1748 4.28363 42.9829 4.19985 42.7245 4.19985C42.4514 4.19985 42.2226 4.29456 42.0455 4.48397C41.8647 4.67339 41.7281 4.93201 41.6395 5.24891C41.551 5.56945 41.503 5.92278 41.503 6.31617V11.0041H40.2593L40.2667 11.0078Z" fill="#040000"/>
<path d="M79.2823 11.1899C78.6143 11.1899 78.046 11.0333 77.5847 10.7127C77.1197 10.3958 76.7469 9.96965 76.4665 9.44148C76.1823 8.90966 75.9756 8.31957 75.8502 7.66391C75.721 7.0119 75.6583 6.34896 75.6583 5.67144C75.6583 4.99393 75.7247 4.33463 75.8502 3.67897C75.9756 3.02331 76.1823 2.43322 76.4665 1.90141C76.7506 1.3696 77.1234 0.947062 77.5847 0.626518C78.046 0.305974 78.6143 0.149344 79.2823 0.149344C79.9503 0.149344 80.5186 0.305974 80.9799 0.626518C81.4412 0.947062 81.8176 1.3696 82.1018 1.90141C82.386 2.42958 82.5926 3.02331 82.7218 3.67897C82.851 4.33463 82.9174 4.99757 82.9174 5.67144C82.9174 6.34531 82.851 7.0119 82.7218 7.66391C82.589 8.31957 82.3823 8.90966 82.1018 9.44148C81.8176 9.97329 81.4449 10.3958 80.9799 10.7127C80.5149 11.0296 79.9503 11.1899 79.2823 11.1899ZM79.2823 10.0425C79.703 10.0425 80.061 9.91501 80.3562 9.65639C80.6515 9.39777 80.8876 9.05901 81.0722 8.63283C81.2567 8.20665 81.3896 7.73312 81.4707 7.21952C81.5519 6.70228 81.5962 6.18868 81.5962 5.67509C81.5962 5.11778 81.5556 4.57504 81.4707 4.05051C81.3859 3.52598 81.253 3.05974 81.0722 2.64813C80.8913 2.23652 80.6515 1.90869 80.3562 1.66829C80.061 1.42788 79.7067 1.30767 79.2823 1.30767C78.8579 1.30767 78.5036 1.43516 78.2084 1.69378C77.9131 1.94876 77.6769 2.29116 77.4924 2.71734C77.3116 3.14352 77.1787 3.6134 77.0938 4.127C77.0127 4.6406 76.9684 5.1542 76.9684 5.67144C76.9684 6.23239 77.009 6.77149 77.0938 7.29238C77.1787 7.81326 77.3079 8.28315 77.4924 8.6984C77.6732 9.11365 77.9131 9.44148 78.2084 9.67824C78.5036 9.92229 78.8579 10.0425 79.2823 10.0425Z" fill="#040000"/>
<path d="M86.2573 11.0078V0.579165L87.5157 0V4.0578C87.9992 3.37664 88.7188 3.03424 89.671 3.03424C90.2983 3.03424 90.8298 3.15444 91.2652 3.39121C91.7007 3.63162 92.0292 4.01044 92.2543 4.53133C92.4794 5.05221 92.5901 5.73337 92.5901 6.57844V11.0078H91.3317V6.34167C91.3317 5.54395 91.1545 4.983 90.7966 4.65881C90.4386 4.33099 89.9994 4.17071 89.4791 4.17071C89.1026 4.17071 88.7668 4.23628 88.4716 4.37105C88.1763 4.50583 87.9438 4.72438 87.7741 5.034C87.6043 5.34361 87.5194 5.76979 87.5194 6.31617V11.0114H86.261L86.2573 11.0078Z" fill="#040000"/>
<path d="M12.1748 28.2953H0.121785V27.5449H5.66487V25.2428H6.5801V27.5449H12.1748V28.2953ZM1.49833 21.7533C1.49833 20.0996 3.35832 18.9995 6.14832 18.9995C8.93831 18.9995 10.7983 20.0996 10.7983 21.7533C10.7983 23.407 8.93831 24.507 6.14832 24.507C3.35832 24.507 1.49833 23.407 1.49833 21.7533ZM2.41726 21.7533C2.41726 22.9553 3.9082 23.7567 6.15201 23.7567C8.39581 23.7567 9.88676 22.9553 9.88676 21.7533C9.88676 20.5512 8.39581 19.7499 6.15201 19.7499C3.9082 19.7499 2.41726 20.5512 2.41726 21.7533Z" fill="#040000"/>
<path d="M0 28.4191V27.4284H5.54308V25.1263H6.70558V27.4284H12.3003V28.4191H0ZM0.243571 28.1751H12.0531V27.6688H6.45832V25.3667H5.78665V27.6688H0.243571V28.1751ZM6.14832 24.6272C3.2919 24.6272 1.37285 23.4726 1.37285 21.7533C1.37285 20.034 3.2919 18.8757 6.14832 18.8757C9.00474 18.8757 10.9238 20.034 10.9238 21.7533C10.9238 23.4726 9.00474 24.6272 6.14832 24.6272ZM6.14832 19.1197C3.43952 19.1197 1.62011 20.1761 1.62011 21.7533C1.62011 23.3305 3.43952 24.3868 6.14832 24.3868C8.85712 24.3868 10.6765 23.3305 10.6765 21.7533C10.6765 20.1761 8.85712 19.1197 6.14832 19.1197ZM6.14832 23.8769C3.84178 23.8769 2.29178 23.0209 2.29178 21.7533C2.29178 20.4857 3.84178 19.626 6.14832 19.626C8.45486 19.626 10.0049 20.482 10.0049 21.7533C10.0049 23.0245 8.45486 23.8769 6.14832 23.8769ZM6.14832 19.8701C3.98939 19.8701 2.53535 20.6277 2.53535 21.7533C2.53535 22.8788 3.9857 23.6365 6.14832 23.6365C8.31093 23.6365 9.76128 22.8788 9.76128 21.7533C9.76128 20.6277 8.31093 19.8701 6.14832 19.8701Z" fill="#040000"/>
<path d="M24.5453 20.5658V21.3162H16.8802V20.5658H24.5453ZM23.7445 24.7147C23.7445 26.1498 22.6189 27.0313 20.7847 27.0313C18.9505 27.0313 17.8213 26.1535 17.8213 24.7147C17.8213 23.2759 18.9505 22.398 20.7847 22.398C22.6189 22.398 23.7445 23.2759 23.7445 24.7147ZM22.8292 24.7147C22.8292 23.7457 22.0542 23.1374 20.7847 23.1374C19.5152 23.1374 18.7402 23.7457 18.7402 24.7147C18.7402 25.6836 19.5115 26.2919 20.7847 26.2919C22.0579 26.2919 22.8292 25.6836 22.8292 24.7147ZM19.1757 19.4403V18.6899H22.4491V19.4403H19.1757ZM26.7743 24.1319V29.8106L25.8591 29.847V17.8485C25.8591 17.7829 25.8849 17.7574 25.9514 17.7574C26.0178 17.7574 26.6858 17.8485 26.778 17.8594C26.9478 17.8849 27.029 18.027 26.9109 18.1435C26.8075 18.2455 26.778 18.3001 26.778 18.4131V23.3779H29.0071V24.1282H26.778L26.7743 24.1319Z" fill="#040000"/>
<path d="M25.7336 29.9745V17.8485C25.7336 17.7173 25.8148 17.6372 25.9477 17.6372C26.0104 17.6372 26.4385 17.6918 26.7891 17.7428C26.9293 17.7647 27.0364 17.8448 27.0696 17.9505C27.1028 18.0488 27.0696 18.1508 26.9884 18.2309C26.8961 18.322 26.8924 18.3439 26.8924 18.4167V23.2613H29.1215V24.2521H26.8924V29.9235L25.7299 29.9709L25.7336 29.9745ZM25.9772 29.7232L26.6489 29.694V24.0117H28.8779V23.5017H26.6489V18.4167C26.6489 18.2528 26.7042 18.1727 26.8186 18.0597C26.8297 18.0488 26.8408 18.0342 26.8371 18.0233C26.8334 18.0087 26.8039 17.9869 26.7522 17.9796C26.3721 17.9286 26.0805 17.8885 25.9772 17.8776V29.7232ZM20.7847 27.1515C18.8804 27.1515 17.6995 26.219 17.6995 24.7147C17.6995 23.2103 18.8804 22.2778 20.7847 22.2778C22.689 22.2778 23.8662 23.2103 23.8662 24.7147C23.8662 26.219 22.6853 27.1515 20.7847 27.1515ZM20.7847 22.5219C19.0059 22.5219 17.9467 23.3414 17.9467 24.7147C17.9467 26.0879 19.0059 26.9075 20.7847 26.9075C22.5635 26.9075 23.6227 26.0879 23.6227 24.7147C23.6227 23.3414 22.5635 22.5219 20.7847 22.5219ZM20.7847 26.4157C19.4488 26.4157 18.6184 25.7637 18.6184 24.7183C18.6184 23.6729 19.4488 23.0209 20.7847 23.0209C22.1207 23.0209 22.951 23.6729 22.951 24.7183C22.951 25.7637 22.1207 26.4157 20.7847 26.4157ZM20.7847 23.2576C19.5816 23.2576 18.862 23.804 18.862 24.7147C18.862 25.6253 19.5816 26.1717 20.7847 26.1717C21.9878 26.1717 22.7074 25.6253 22.7074 24.7147C22.7074 23.804 21.9878 23.2576 20.7847 23.2576ZM24.6671 21.4327H16.7584V20.442H24.6671V21.4327ZM17.002 21.1923H24.4198V20.686H17.002V21.1923ZM22.5709 19.5605H19.0502V18.5697H22.5709V19.5605ZM19.2975 19.3201H22.3273V18.8101H19.2975V19.3201Z" fill="#040000"/>
<path d="M39.2887 19.4767H34.325V18.7263H40.2076V21.8443H35.3215V23.7967C37.0892 23.7312 39.3699 23.5636 41.5842 23.254L41.7133 24.0044C39.0931 24.3796 36.2367 24.6017 34.4025 24.6382V21.1195H39.2887V19.4767ZM43.1416 29.847V29.5228H36.7866V29.847H35.8713V25.9677H44.0605V29.847H43.1416ZM43.1416 26.7181H36.7866V28.7761H43.1416V26.7181ZM44.1896 18.1472C44.0863 18.2491 44.0568 18.3038 44.0568 18.4167V25.0389L43.1416 25.0789V17.8485C43.1416 17.7829 43.1674 17.7574 43.2338 17.7574C43.3002 17.7574 43.9682 17.8485 44.0568 17.8594C44.2266 17.8849 44.3077 18.027 44.1896 18.1435V18.1472Z" fill="#040000"/>
<path d="M44.1786 29.9709H43.0161V29.6467H36.9047V29.9709H35.7422V25.8511H44.1749V29.9709H44.1786ZM43.2633 29.7268H43.935V26.0879H35.9931V29.7268H36.6648V29.4026H43.2633V29.7268ZM43.2633 28.8963H36.6648V26.5979H43.2633V28.8963ZM36.9084 28.6559H43.0198V26.8419H36.9084V28.6559ZM43.0198 25.2028V17.8485C43.0198 17.7173 43.101 17.6372 43.2338 17.6372C43.315 17.6372 44.0679 17.7392 44.0752 17.7428C44.2118 17.7647 44.3188 17.8448 44.3557 17.9505C44.3889 18.0488 44.3557 18.1508 44.2745 18.2309C44.1823 18.322 44.1786 18.3439 44.1786 18.4167V25.1518L43.0161 25.1991L43.0198 25.2028ZM43.2633 17.8813V24.9551L43.935 24.9259V18.4203C43.935 18.2564 43.9904 18.1763 44.1048 18.0634C44.1158 18.0525 44.1269 18.0379 44.1232 18.027C44.1195 18.0124 44.09 17.9905 44.0383 17.9832C43.8612 17.9577 43.3962 17.8958 43.2633 17.8813ZM34.2807 24.762V21.0029H39.1669V19.6005H34.2032V18.6098H40.3294V21.9682H35.4432V23.6729C36.6869 23.6255 39.023 23.4944 41.5657 23.1374L41.6838 23.1192L41.8536 24.1064L41.7281 24.1246C39.333 24.467 36.4581 24.7183 34.4025 24.762H34.2771H34.2807ZM34.5243 21.2433V24.5143C36.5246 24.467 39.2592 24.2266 41.5694 23.9024L41.4809 23.3888C38.8828 23.7494 36.5135 23.8732 35.3215 23.917H35.196V21.7241H40.0822V18.8465H34.4431V19.3565H39.4068V21.2397H34.5206L34.5243 21.2433Z" fill="#040000"/>
<path d="M58.7301 26.7071C59.5235 28.2188 61.2175 28.9218 63.9927 29.0966C63.775 29.3006 63.5129 29.7159 63.3911 30C60.3281 29.6904 58.5788 28.7725 57.7041 26.7472C57.0472 28.5284 55.5563 29.501 51.9212 30C51.8511 29.7705 51.6333 29.3808 51.4562 29.1622C54.6558 28.798 56.025 28.0549 56.6524 26.7071H51.7182V25.8038H56.9402C57.0362 25.3849 57.1026 24.9259 57.1469 24.4269H58.1581C58.1175 24.9259 58.0474 25.3849 57.9662 25.8038H60.9887V24.1428H53.8661V24.7511H52.8549V18.8283H53.8661V23.2249H62.0146V25.8038H63.7085V26.7071H58.7301ZM62.2176 22.1467H55.4234V18.2746H62.2176V22.1467ZM61.2175 19.1525H56.3903V21.2579H61.2175V19.1525Z" fill="#040000"/>
<path d="M68.9084 23.6838C68.3474 23.2904 67.2255 22.6457 66.3915 22.2268L66.9524 21.4983C67.7459 21.8771 68.8789 22.4854 69.4693 22.8606L68.9084 23.6838ZM66.7901 29.1112C67.5282 28.0986 68.6095 26.332 69.3734 24.8057L70.1115 25.465C69.3992 26.882 68.4582 28.543 67.6499 29.7705L66.7901 29.1076V29.1112ZM79.024 19.4767H77.9722V28.5175C77.9722 29.246 77.7655 29.5848 77.2489 29.745C76.7137 29.9199 75.7431 29.9344 74.2411 29.9344C74.1858 29.6394 74.0086 29.1659 73.8425 28.8817C75.0309 28.9218 76.2081 28.9072 76.5513 28.9072C76.865 28.8927 76.9758 28.798 76.9758 28.5029V19.4767H70.1668V19.2873L69.5764 20.085C69.0043 19.6807 67.8824 19.0177 67.0336 18.5588L67.6094 17.8448C68.4434 18.2637 69.5653 18.883 70.1668 19.2618V18.5078H79.024V19.4803V19.4767ZM71.9161 26.2081V27.1406H70.9861V21.338H75.2671V26.2081H71.9161ZM71.9161 22.2559V25.3048H74.3223V22.2559H71.9161Z" fill="#040000"/>
<path d="M87.5637 25.1153C87.2611 24.6309 86.5636 23.6984 86.0026 22.9954V29.9454H85.0062V23.3596C84.4194 24.9806 83.5965 26.5432 82.7772 27.4903C82.6554 27.1916 82.4081 26.8018 82.231 26.5578C83.2569 25.425 84.3087 23.3451 84.8291 21.4837H82.5742V20.5257H85.0099V17.6372H86.0063V20.5257H87.9475V21.4837H86.0063V21.7933C86.4566 22.2122 87.9069 23.8587 88.2354 24.2484L87.5637 25.1117V25.1153ZM92.2543 21.4874C92.8706 23.6183 93.9076 25.7783 95 26.9512C94.7527 27.126 94.3984 27.4648 94.2213 27.7343C93.3873 26.6962 92.5938 25.0461 91.9923 23.2795V29.9454H90.9958V23.3196C90.2688 25.17 89.2466 26.9221 88.18 27.9747C88.0435 27.7052 87.7704 27.3264 87.5785 27.0969C88.8775 25.8402 90.1507 23.6438 90.7781 21.4837H88.5343V20.5257H90.9958V17.6372H91.9923V20.5257H94.5756V21.4837H92.2506L92.2543 21.4874Z" fill="#040000"/>
</svg>
