<svg width="158" height="12" viewBox="0 0 158 12" fill="none" xmlns="http://www.w3.org/2000/svg">
<path d="M3.88486 11.996C3.13078 11.996 2.45962 11.8457 1.87531 11.5372C1.291 11.2327 0.833033 10.8134 0.501399 10.2835C0.165817 9.75346 0 9.15623 0 8.48781C0 7.77587 0.193453 7.14305 0.572464 6.58141C0.955422 6.02373 1.44893 5.63217 2.05692 5.40672C1.58316 5.18919 1.2081 4.86487 0.935682 4.4298C0.663268 3.99473 0.521139 3.52406 0.521139 3.02175C0.521139 2.47198 0.667216 1.96572 0.955422 1.51088C1.24363 1.05603 1.64238 0.692156 2.14378 0.419248C2.64913 0.146341 3.22949 0.00791035 3.88486 0.00791035C4.54023 0.00791035 5.12849 0.146341 5.63778 0.419248C6.14313 0.692156 6.54188 1.05603 6.83008 1.51088C7.12224 1.96572 7.26437 2.47198 7.26437 3.02175C7.26437 3.52406 7.13013 3.99473 6.86167 4.4298C6.5932 4.86487 6.21025 5.18919 5.70885 5.39881C6.32079 5.63612 6.81824 6.0356 7.20515 6.58932C7.59205 7.147 7.78156 7.77983 7.78156 8.48385C7.78156 9.15227 7.61574 9.74951 7.28016 10.2795C6.94853 10.8095 6.48661 11.2287 5.9023 11.5333C5.31404 11.8378 4.64288 11.9921 3.88091 11.9921L3.88486 11.996ZM3.88486 10.7699C4.6034 10.7699 5.1956 10.5564 5.66937 10.1292C6.14313 9.70204 6.38001 9.12063 6.38001 8.38497C6.38001 7.93804 6.27736 7.53065 6.06417 7.15887C5.85492 6.79104 5.56277 6.4944 5.19165 6.27291C4.82054 6.05142 4.38231 5.94463 3.88091 5.94463C3.37951 5.94463 2.95312 6.05537 2.57806 6.27291C2.20695 6.4944 1.91874 6.79104 1.71344 7.15887C1.50815 7.5267 1.40155 7.93804 1.40155 8.38497C1.40155 9.11668 1.63843 9.69809 2.10825 10.1292C2.57806 10.5564 3.17026 10.7699 3.88091 10.7699H3.88486ZM3.88486 4.9321C4.50075 4.9321 4.9903 4.76203 5.35352 4.41398C5.71279 4.06988 5.8944 3.64272 5.8944 3.12854C5.8944 2.55504 5.7049 2.09624 5.32589 1.74819C4.94688 1.40409 4.46522 1.23006 3.88881 1.23006C3.31239 1.23006 2.83863 1.40409 2.46357 1.74819C2.08456 2.09229 1.899 2.55504 1.899 3.12854C1.899 3.64272 2.08061 4.06988 2.43988 4.41398C2.79915 4.75808 3.28476 4.9321 3.88881 4.9321H3.88486Z" fill="#040000"/>
<path d="M12.4797 11.7983C12.4797 11.0705 12.5666 10.4417 12.7324 9.91167C12.9021 9.38167 13.1351 8.91496 13.4351 8.51154C13.7352 8.10811 14.0866 7.73632 14.4932 7.40013C14.8998 7.05999 15.342 6.7238 15.8197 6.38761C16.2224 6.09492 16.5975 5.79829 16.9489 5.50165C17.3002 5.20501 17.5806 4.88069 17.7977 4.52472C18.0109 4.17271 18.1175 3.76928 18.1175 3.31444C18.1175 2.72512 17.9438 2.23467 17.5885 1.84707C17.2371 1.4555 16.7515 1.2617 16.1356 1.2617C15.4802 1.2617 14.9512 1.42386 14.5485 1.74423C14.1458 2.06856 13.8734 2.49572 13.7312 3.02571L12.5231 2.47989C12.6574 2.00923 12.8903 1.58998 13.2219 1.22215C13.5575 0.850363 13.9721 0.55768 14.4656 0.340145C14.963 0.118655 15.5197 0.0118655 16.1356 0.0118655C16.8462 0.0118655 17.4542 0.150297 17.9596 0.427159C18.461 0.704021 18.8479 1.08767 19.1203 1.58207C19.3927 2.07647 19.523 2.64997 19.523 3.30653C19.523 3.96308 19.3809 4.57614 19.0966 5.06262C18.8123 5.54911 18.4373 5.98022 17.9675 6.36388C17.4977 6.74357 16.9884 7.12327 16.4396 7.49901C16.0487 7.76796 15.6697 8.06065 15.3025 8.36519C14.9354 8.66974 14.6314 9.00198 14.3906 9.35003C14.1458 9.70204 14.0115 10.0817 13.976 10.497H19.6217V11.8062H12.4797V11.7983Z" fill="#040000"/>
<path d="M31.8882 11.7983V10.4891H38.9631V11.7983H31.8882ZM34.7624 11.7983V2.029L32.2277 2.89123V1.56625L36.1284 0.158207V11.7983H34.7624Z" fill="#040000"/>
<path d="M47.5895 11.996C46.8196 11.996 46.1761 11.822 45.6589 11.474C45.1457 11.1259 44.7351 10.6632 44.4271 10.0778C44.1231 9.49637 43.9021 8.85168 43.7678 8.14766C43.6336 7.43968 43.5625 6.72775 43.5625 6.00396C43.5625 5.50165 43.5981 4.97561 43.6731 4.42189C43.7481 3.86816 43.8744 3.33421 44.0481 2.81213C44.2258 2.29005 44.4666 1.81938 44.7706 1.39618C45.0746 0.972973 45.4576 0.636783 45.9195 0.387607C46.3814 0.134476 46.9341 0.00791035 47.5856 0.00791035C48.3554 0.00791035 49.0029 0.181938 49.5201 0.533949C50.0373 0.885959 50.4518 1.35267 50.7558 1.93804C51.0598 2.5234 51.2809 3.1681 51.4112 3.87607C51.5415 4.58405 51.6086 5.29202 51.6086 6.00396C51.6086 6.51022 51.5731 7.04021 51.4981 7.59394C51.423 8.14371 51.3007 8.68161 51.123 9.20369C50.9453 9.72577 50.7045 10.1964 50.3966 10.6196C50.0886 11.0428 49.7017 11.3751 49.2437 11.6243C48.7858 11.8734 48.233 11.996 47.5856 11.996H47.5895ZM47.5895 10.7462C48.1343 10.7462 48.5765 10.5999 48.916 10.3111C49.2556 10.0185 49.5161 9.63876 49.7017 9.16414C49.8873 8.68952 50.0136 8.17535 50.0807 7.62162C50.1478 7.0679 50.1834 6.52604 50.1834 6.00396C50.1834 5.42254 50.1439 4.85695 50.061 4.29532C49.982 3.73369 49.8478 3.22347 49.6583 2.76862C49.4688 2.31378 49.2042 1.94595 48.8687 1.67304C48.5331 1.40013 48.1067 1.2617 47.5895 1.2617C47.0723 1.2617 46.6064 1.40804 46.259 1.70073C45.9116 1.99341 45.6471 2.37706 45.4615 2.85168C45.276 3.3263 45.1496 3.84047 45.0786 4.3942C45.0035 4.94792 44.968 5.48583 44.968 6.00396C44.968 6.58932 45.0075 7.16282 45.0825 7.72446C45.1615 8.28609 45.2957 8.79631 45.4892 9.25115C45.6826 9.706 45.9471 10.0699 46.2906 10.3388C46.6301 10.6078 47.0644 10.7423 47.5856 10.7423L47.5895 10.7462ZM47.5895 7.09558C47.2816 7.09558 47.0249 6.98484 46.8196 6.7673C46.6143 6.54977 46.5156 6.29664 46.5156 6.01187C46.5156 5.72709 46.6183 5.48978 46.8196 5.26829C47.0249 5.05076 47.2816 4.94001 47.5895 4.94001C47.8975 4.94001 48.1541 5.05076 48.3594 5.26829C48.5647 5.48978 48.6634 5.735 48.6634 6.01187C48.6634 6.28873 48.5607 6.54977 48.3594 6.7673C48.158 6.98484 47.8975 7.09558 47.5895 7.09558Z" fill="#040000"/>
<path d="M65.4148 11.996C64.5858 11.996 63.8949 11.8022 63.3342 11.4067C62.7736 11.0112 62.3551 10.4773 62.0709 9.80092C61.7866 9.12459 61.6445 8.36519 61.6445 7.51879C61.6445 6.67238 61.7866 5.84179 62.0709 5.03889C62.3551 4.23599 62.7618 3.49242 63.2908 2.80422C63.8198 2.11602 64.4476 1.53065 65.174 1.04417C65.9044 0.55768 66.7098 0.213579 67.5981 0.00791035V1.15096C66.919 1.33685 66.2795 1.65326 65.6754 2.10415C65.0714 2.55504 64.5581 3.07713 64.1396 3.67831C63.7172 4.2795 63.4408 4.90442 63.3105 5.54911C63.5632 5.24061 63.8988 5.0033 64.3094 4.83322C64.72 4.66315 65.1898 4.58009 65.7149 4.58009C66.3742 4.58009 66.9585 4.75016 67.4718 5.09031C67.9811 5.43046 68.3798 5.87343 68.672 6.41925C68.9602 6.96506 69.1062 7.55043 69.1062 8.17535C69.1062 8.9031 68.9404 9.5557 68.6127 10.1332C68.2851 10.7106 67.8429 11.1655 67.2823 11.4977C66.7216 11.8299 66.1018 12 65.4188 12L65.4148 11.996ZM65.3793 10.7462C65.8531 10.7462 66.2716 10.6394 66.6308 10.4298C66.9901 10.2202 67.2744 9.92749 67.4718 9.55966C67.6692 9.19183 67.7758 8.77653 67.7758 8.30587C67.7758 7.56625 67.5586 6.96111 67.1283 6.4944C66.698 6.02769 66.1176 5.79038 65.3754 5.79038C64.9134 5.79038 64.4989 5.90112 64.1357 6.1147C63.7725 6.33223 63.4882 6.62887 63.2829 7.00461C63.0776 7.38036 62.975 7.81938 62.975 8.30982C62.975 8.80026 63.0816 9.19578 63.2908 9.56361C63.5 9.93144 63.7922 10.2202 64.1554 10.4338C64.5186 10.6473 64.9253 10.7502 65.3793 10.7502V10.7462Z" fill="#040000"/>
<path d="M77.5787 11.996C76.7496 11.996 76.0587 11.8022 75.4981 11.4067C74.9375 11.0112 74.519 10.4773 74.2347 9.80092C73.9505 9.12459 73.8083 8.36519 73.8083 7.51879C73.8083 6.67238 73.9505 5.84179 74.2347 5.03889C74.519 4.23599 74.9256 3.49242 75.4547 2.80422C75.9837 2.11602 76.6114 1.53065 77.3379 1.04417C78.0683 0.55768 78.8737 0.213579 79.762 0.00791035V1.15096C79.0829 1.33685 78.4433 1.65326 77.8393 2.10415C77.2352 2.55504 76.722 3.07713 76.3035 3.67831C75.8811 4.2795 75.6047 4.90442 75.4744 5.54911C75.7271 5.24061 76.0627 5.0033 76.4733 4.83322C76.8839 4.66315 77.3537 4.58009 77.8788 4.58009C78.5381 4.58009 79.1224 4.75016 79.6356 5.09031C80.1449 5.43046 80.5437 5.87343 80.8358 6.41925C81.124 6.96506 81.2701 7.55043 81.2701 8.17535C81.2701 8.9031 81.1043 9.5557 80.7766 10.1332C80.4489 10.7106 80.0067 11.1655 79.4461 11.4977C78.8855 11.8299 78.2657 12 77.5827 12L77.5787 11.996ZM77.5432 10.7462C78.0169 10.7462 78.4354 10.6394 78.7947 10.4298C79.154 10.2202 79.4382 9.92749 79.6356 9.55966C79.833 9.19183 79.9396 8.77653 79.9396 8.30587C79.9396 7.56625 79.7225 6.96111 79.2922 6.4944C78.8618 6.02769 78.2815 5.79038 77.5392 5.79038C77.0773 5.79038 76.6628 5.90112 76.2995 6.1147C75.9363 6.33223 75.6521 6.62887 75.4468 7.00461C75.2415 7.38036 75.1388 7.81938 75.1388 8.30982C75.1388 8.80026 75.2454 9.19578 75.4547 9.56361C75.6639 9.93144 75.9561 10.2202 76.3193 10.4338C76.6825 10.6473 77.0892 10.7502 77.5432 10.7502V10.7462Z" fill="#040000"/>
<path d="M88.2463 11.7983C88.2463 10.5287 88.3568 9.29466 88.574 8.1002C88.7911 6.90574 89.1662 5.72314 89.6992 4.55636C90.2321 3.38958 90.9665 2.21094 91.91 1.01648L92.2496 1.412H86.2407V0.205669H93.1576V1.19842C92.4154 2.07647 91.8074 2.99011 91.3415 3.93935C90.8757 4.8886 90.5124 5.83388 90.2637 6.77521C90.011 7.71655 89.8413 8.61437 89.7505 9.46869C89.6597 10.323 89.6162 11.0982 89.6162 11.7943H88.2502L88.2463 11.7983Z" fill="#040000"/>
<path d="M100.406 11.7983C100.406 10.5287 100.517 9.29466 100.734 8.1002C100.951 6.90574 101.326 5.72314 101.859 4.55636C102.392 3.38958 103.126 2.21094 104.07 1.01648L104.409 1.412H98.4006V0.205669H105.318V1.19842C104.575 2.07647 103.967 2.99011 103.501 3.93935C103.036 4.8886 102.672 5.83388 102.424 6.77521C102.171 7.71655 102.001 8.61437 101.91 9.46869C101.82 10.323 101.776 11.0982 101.776 11.7943H100.41L100.406 11.7983Z" fill="#040000"/>
<path d="M118.622 11.996C117.928 11.996 117.343 11.8774 116.862 11.6401C116.384 11.4028 115.989 11.0784 115.681 10.6711C115.373 10.2637 115.124 9.80092 114.939 9.27884L116.194 8.75676C116.451 9.43705 116.779 9.93144 117.173 10.2479C117.568 10.5643 118.054 10.7185 118.634 10.7185C119.057 10.7185 119.448 10.6434 119.803 10.4852C120.158 10.327 120.438 10.0976 120.648 9.78115C120.857 9.46473 120.964 9.07317 120.964 8.59855C120.964 7.94199 120.758 7.412 120.348 7.00857C119.937 6.60514 119.333 6.40343 118.532 6.40343H117.691V5.13777H118.401C119.037 5.13777 119.546 4.95979 119.929 4.60382C120.316 4.24786 120.51 3.77719 120.51 3.19183C120.51 2.60646 120.324 2.12788 119.957 1.78774C119.59 1.44759 119.151 1.27752 118.65 1.27752C118.247 1.27752 117.908 1.36454 117.631 1.53065C117.351 1.70073 117.122 1.91035 116.944 2.16348C116.767 2.41661 116.625 2.66974 116.518 2.92287L115.271 2.4443C115.424 2.02109 115.65 1.62162 115.954 1.24588C116.254 0.874094 116.625 0.5735 117.071 0.3441C117.513 0.1147 118.03 0 118.618 0C119.238 0 119.799 0.126566 120.3 0.379697C120.798 0.632828 121.193 0.984838 121.481 1.43573C121.773 1.88662 121.915 2.41266 121.915 3.01384C121.915 3.53197 121.785 4.01846 121.524 4.4733C121.264 4.92815 120.904 5.28411 120.454 5.53724C121.043 5.76269 121.512 6.13843 121.86 6.66447C122.207 7.19051 122.381 7.81938 122.381 8.559C122.381 9.23138 122.211 9.82465 121.872 10.3388C121.532 10.853 121.078 11.2564 120.513 11.5491C119.949 11.8418 119.317 11.9881 118.63 11.9881L118.622 11.996Z" fill="#040000"/>
<path d="M127.28 11.7983V10.4891H134.355V11.7983H127.28ZM130.155 11.7983V2.029L127.62 2.89123V1.56625L131.521 0.158207V11.7983H130.155Z" fill="#040000"/>
<path d="M140.329 11.996V10.853C141.039 10.679 141.695 10.3665 142.287 9.91167C142.883 9.46078 143.38 8.92683 143.783 8.30982C144.186 7.69281 144.442 7.04021 144.553 6.34806C144.289 6.68029 143.933 6.93342 143.491 7.11536C143.049 7.2973 142.54 7.38431 141.967 7.38431C141.308 7.38431 140.712 7.2261 140.187 6.90574C139.661 6.58537 139.243 6.15821 138.935 5.6203C138.627 5.0824 138.473 4.48517 138.473 3.82861C138.473 3.10086 138.643 2.44825 138.99 1.87475C139.334 1.30125 139.8 0.846407 140.392 0.514173C140.984 0.181938 141.643 0.0118655 142.374 0.0118655C143.234 0.0118655 143.945 0.209624 144.506 0.605142C145.066 1.00066 145.485 1.53461 145.757 2.21094C146.03 2.88728 146.168 3.65063 146.168 4.50099C146.168 5.35135 146.03 6.22545 145.753 7.04417C145.477 7.86289 145.086 8.61833 144.581 9.30257C144.075 9.98682 143.463 10.5643 142.745 11.031C142.03 11.5016 141.225 11.826 140.333 12L140.329 11.996ZM142.303 6.23336C142.792 6.23336 143.226 6.12261 143.605 5.90508C143.984 5.68754 144.277 5.3909 144.494 5.01121C144.711 4.63151 144.818 4.2004 144.818 3.71391C144.818 3.22742 144.707 2.8319 144.49 2.46012C144.269 2.08833 143.969 1.79169 143.594 1.57416C143.219 1.35662 142.788 1.24588 142.314 1.24588C141.809 1.24588 141.367 1.35662 140.988 1.57416C140.609 1.79169 140.317 2.08833 140.108 2.46012C139.898 2.8319 139.792 3.25115 139.792 3.71391C139.792 4.44957 140.017 5.05076 140.471 5.52142C140.921 5.99604 141.533 6.2294 142.303 6.2294V6.23336Z" fill="#040000"/>
<path d="M152.161 11.996V10.853C152.872 10.679 153.527 10.3665 154.119 9.91167C154.715 9.46078 155.213 8.92683 155.615 8.30982C156.018 7.69281 156.275 7.04021 156.385 6.34806C156.121 6.68029 155.765 6.93342 155.323 7.11536C154.881 7.2973 154.372 7.38431 153.799 7.38431C153.14 7.38431 152.544 7.2261 152.019 6.90574C151.494 6.58537 151.075 6.15821 150.767 5.6203C150.459 5.0824 150.305 4.48517 150.305 3.82861C150.305 3.10086 150.475 2.44825 150.822 1.87475C151.166 1.30125 151.632 0.846407 152.224 0.514173C152.816 0.181938 153.476 0.0118655 154.206 0.0118655C155.067 0.0118655 155.777 0.209624 156.338 0.605142C156.898 1.00066 157.317 1.53461 157.589 2.21094C157.862 2.88728 158 3.65063 158 4.50099C158 5.35135 157.862 6.22545 157.585 7.04417C157.309 7.86289 156.918 8.61833 156.413 9.30257C155.908 9.98682 155.296 10.5643 154.577 11.031C153.862 11.5016 153.057 11.826 152.165 12L152.161 11.996ZM154.135 6.23336C154.624 6.23336 155.059 6.12261 155.438 5.90508C155.817 5.68754 156.109 5.3909 156.326 5.01121C156.543 4.63151 156.65 4.2004 156.65 3.71391C156.65 3.22742 156.539 2.8319 156.322 2.46012C156.101 2.08833 155.801 1.79169 155.426 1.57416C155.051 1.35662 154.62 1.24588 154.147 1.24588C153.641 1.24588 153.199 1.35662 152.82 1.57416C152.441 1.79169 152.149 2.08833 151.94 2.46012C151.731 2.8319 151.624 3.25115 151.624 3.71391C151.624 4.44957 151.849 5.05076 152.303 5.52142C152.753 5.99604 153.365 6.2294 154.135 6.2294V6.23336Z" fill="#040000"/>
</svg>
